<?xml version="1.0" encoding="utf-8"?>
<svg version="1.1" id="Ebene_1" xmlns="http://www.w3.org/2000/svg" xmlns:xlink="http://www.w3.org/1999/xlink" x="0px" y="0px"
	 viewBox="0 0 500 500" style="enable-background:new 0 0 500 500;" xml:space="preserve">
<style type="text/css">
	.st0{fill:#FFFFFF;}
</style>
<path class="st0" d="M410.24,53.13H293.58c-9.63-23.22-32.5-39.56-59.2-39.56s-49.57,16.34-59.2,39.56H58.51
	c-10.17,0-18.41,8.24-18.41,18.41v0c0,10.17,8.24,18.41,18.41,18.41h351.73c10.17,0,18.41-8.24,18.41-18.41v0
	C428.64,61.37,420.4,53.13,410.24,53.13z M234.37,29.33c17.74,0,33.23,9.56,41.64,23.8h-83.28
	C201.14,38.89,216.64,29.33,234.37,29.33z"/>
<path class="st0" d="M392.01,100.85H76.73c-11.31,0-20.11,11.33-18.87,24.29C69.28,243.6,80.7,362.07,92.11,480.54
	c1.07,11.08,9.19,19.46,18.87,19.46h246.79c9.67,0,17.8-8.38,18.87-19.46c11.42-118.47,22.83-236.93,34.25-355.4
	C412.13,112.18,403.33,100.85,392.01,100.85z M145.76,457.52c0,7.66-5.67,13.87-12.66,13.87h0c-6.99,0-12.66-6.21-12.66-13.87
	V148.07c0-7.66,5.67-13.87,12.66-13.87h0c6.99,0,12.66,6.21,12.66,13.87V457.52z M196.4,457.52c0,7.66-5.67,13.87-12.66,13.87
	s-12.66-6.21-12.66-13.87V148.07c0-7.66,5.67-13.87,12.66-13.87s12.66,6.21,12.66,13.87V457.52z M247.03,457.52
	c0,7.66-5.67,13.87-12.66,13.87h0c-6.99,0-12.66-6.21-12.66-13.87V148.07c0-7.66,5.67-13.87,12.66-13.87h0
	c6.99,0,12.66,6.21,12.66,13.87V457.52z M297.67,458.18c0,7.66-5.67,13.87-12.66,13.87s-12.66-6.21-12.66-13.87V148.73
	c0-7.66,5.67-13.87,12.66-13.87s12.66,6.21,12.66,13.87V458.18z M348.31,457.52c0,7.66-5.67,13.87-12.66,13.87h0
	c-6.99,0-12.66-6.21-12.66-13.87V148.07c0-7.66,5.67-13.87,12.66-13.87h0c6.99,0,12.66,6.21,12.66,13.87V457.52z"/>
</svg>
